<svg width="202" height="202" viewBox="0 0 202 202" fill="none" xmlns="http://www.w3.org/2000/svg">
<path d="M92.7279 25.6546C98.4518 17.24 83.154 -7.73047 80.6279 2.55457C78.1019 12.8396 84.3702 11.9325 82.2779 21.8052C80.1856 31.678 70.0679 43.1452 85.0279 51.5052C88.5112 52.2386 94.7079 52.4952 91.6279 47.6552C88.5112 41.0552 87.0041 34.0692 92.7279 25.6546Z" fill="#FAC68E" stroke="#FAC68E" stroke-width="0.22"/>
<path d="M117.147 177.986C87.1108 187.773 69.9363 186.265 39.0469 177.986V180.1C39.0469 185.029 42.3227 189.381 47.0955 190.611C70.6817 196.687 86.588 197.695 109.673 190.839C114.173 189.503 117.147 185.284 117.147 180.59V177.986Z" fill="#E4D9C9" stroke="#E4D9C9" stroke-width="0.22"/>
<path d="M18.5155 167.816C-2.16601 149.317 0.608548 106.34 0.608548 106.34L28.5988 85.9896L156.126 109.64C156.126 109.64 161.696 151.99 135.583 170.56C102.893 193.809 48.4129 194.558 18.5155 167.816Z" fill="#E1D4C1" stroke="#E0D0BE" stroke-width="0.22"/>
<path d="M2.75 109.28C2.74962 71.2459 158.294 75.2792 153.334 113.3C148.373 151.321 2.75038 147.314 2.75 109.28Z" stroke="#F3EADD" stroke-width="5.5" stroke-linejoin="round"/>
<path d="M86.5978 194.114C84.8471 192.377 85.2538 189.446 87.4114 188.251L184.215 134.658C189.737 131.129 190.54 135.037 190.698 138.269C190.78 139.953 190.121 140.781 188.637 141.579L90.9555 194.746C89.5221 195.517 87.7533 195.26 86.5978 194.114Z" fill="#FDC67F"/>
<rect x="85.2344" y="189.406" width="118.086" height="4.86908" rx="2.43454" transform="rotate(-28.9597 85.2344 189.406)" fill="#FDDAA6"/>
<path d="M85.7953 90.9275C80.4786 89.4923 75.8953 92.4512 68.7453 92.0396C78.0953 92.5778 85.7953 96.2613 86.8953 105.41C87.9953 114.56 87.9953 117.411 87.9953 117.411C87.9953 117.411 81.9453 129.534 63.2453 130.611L59.9453 136.038C84.6953 138.788 144.645 136.038 147.395 115.761C147.212 111.635 144.645 104.761 130.895 100.361C126.862 97.3111 119.895 93.7608 110.545 93.7608C106.145 91.4286 97.8953 90.4608 94.0453 90.9275C92.0286 92.1833 85.7953 93.9413 85.7953 90.9275Z" fill="#CD7033"/>
<path d="M68.7769 91.4905C68.7558 91.8566 68.7348 92.2226 68.7137 92.5887C73.1101 92.9184 77.3691 91.5268 81.4852 91.1047C82.9001 90.985 84.3116 91.0576 85.6616 91.4228L85.2822 90.9275C85.2743 91.4078 85.4467 91.9861 85.8441 92.3651C86.2339 92.7463 86.7123 92.9128 87.1516 93.0039C88.0402 93.1731 88.8727 93.0905 89.6849 92.9621C91.3035 92.6706 92.8394 92.1988 94.3058 91.3458L94.1046 91.4167C99.5407 91.0445 105.389 91.8409 110.332 94.1641L110.545 94.2173C117.707 94.1823 124.907 96.3939 130.648 100.688L130.77 100.751C138.049 103.045 146.55 107.546 147.037 115.777L147.04 115.713C145.707 123.65 137.151 127.392 130.08 129.957C122.643 132.501 114.875 133.934 107.077 134.96C91.4718 136.886 75.5905 137.383 59.9625 135.884L60.078 136.119C61.1742 134.307 62.2703 132.496 63.3664 130.684L63.2535 130.752C72.9186 130.268 83.0019 126.005 88.066 117.446L88.0743 117.411C87.9126 113.387 87.4226 109.4 86.9481 105.404C86.5336 101.421 84.344 97.6299 80.946 95.4841C77.3375 93.134 72.987 92.2873 68.7453 92.0396C72.9858 92.3051 77.3303 93.1723 80.9157 95.5299C84.2921 97.6841 86.4465 101.456 86.8425 105.417C87.2997 109.411 87.7726 113.41 87.9163 117.411L87.9246 117.376C82.8728 125.828 72.8405 130.033 63.2372 130.469L63.1626 130.474L63.1242 130.537C62.0203 132.344 60.9165 134.151 59.8126 135.958L59.6862 136.166L59.9282 136.193C75.591 137.762 91.4842 137.333 107.142 135.47C114.967 134.473 122.767 133.072 130.28 130.538C137.399 127.954 146.213 124.334 147.75 115.809L147.753 115.745C147.226 106.931 138.36 102.335 131.02 99.9705L131.142 100.034C125.261 95.5959 117.891 93.3011 110.545 93.3043L110.759 93.3574C105.494 90.8792 99.7506 90.0846 93.986 90.4383L93.7848 90.5092C92.5332 91.2358 90.9993 91.7169 89.5226 91.9694C88.1198 92.2157 86.1897 92.149 86.3084 90.9275L86.3075 90.5334L85.929 90.4321C84.4508 90.0245 82.8992 89.942 81.4019 90.063C77.0374 90.5051 72.9775 91.8274 68.7769 91.4905ZM68.7137 92.5887L68.7769 91.4905L68.7453 92.0396L68.7137 92.5887Z" fill="#CD7033"/>
<path d="M43.9996 86.0626C46.5662 85.5134 52.2476 88.0861 56.6476 93.0304C36.9803 96.5481 31.3548 98.925 31.3475 109.678L35.1975 118.293C36.1142 121.039 41.2476 132.194 64.3476 130.547L59.9466 136.04C43.9094 135.892 9.347 128.89 10.4476 112.973C10.9976 108.03 15.7276 102.099 23.6479 102.538C21.9972 100.891 21.9976 99.2431 24.1986 95.948C26.0319 93.751 28.5314 92.6536 30.7996 92.6536C32.4475 92.6536 38.6092 95.6186 39.0492 92.1038C39.5992 90.4562 40.6992 87.7102 43.9996 86.0626Z" fill="#39682F" stroke="#39682F" stroke-width="0.22"/>
<path d="M43.7973 128.665C31.9227 123.814 31.3516 107.99 31.3516 107.99L90.7516 109.368C90.7516 109.368 90.7516 115.571 89.0544 119.017C87.3573 122.462 84.5287 124.53 79.4373 127.287C74.3459 130.043 55.6718 133.516 43.7973 128.665Z" fill="#E6DBCB"/>
<path d="M90.7375 107.271C91.3268 120.459 73.2501 125.082 58.7833 124.43C46.3018 123.867 32.3033 120.708 31.394 109.351C30.4404 97.4376 45.7242 92.6977 58.7833 91.6712C72.8877 90.5625 90.1616 94.3807 90.7375 107.271Z" fill="#FCF5E5"/>
<path d="M72.1876 108.117C71.8975 116.47 61.9559 118.681 54.2 117.702C47.5084 116.857 40.1199 114.312 40.1536 107.102C40.1889 99.5401 48.6327 97.1457 55.7084 97.0097C63.3503 96.8627 72.4712 99.9522 72.1876 108.117Z" fill="#FBC752" stroke="#FBC752" stroke-width="1.1" stroke-linejoin="round"/>
<path d="M55.0003 91.9121C55.0003 91.9121 50.0484 87.6261 48.3984 87.0761C48.3984 87.0761 84.4135 82.2976 108.348 87.0896C144.098 94.2471 151.798 105.235 150.698 111.835C149.415 119.535 146.848 119.535 145.198 122.285C145.198 112.117 137.158 105.329 131.473 103.211C124.871 95.868 115.152 94.5029 111.117 94.7383C100.114 89.0897 94.4288 90.9726 92.9617 92.6201C90.3209 94.8795 87.46 93.0895 86.3597 91.9121C83.2787 89.0893 75.5398 90.7359 72.0554 91.9121C64.8984 91.4761 61.5984 91.4761 55.0003 91.9121Z" fill="#E0D0BE" stroke="#E0D0BE" stroke-width="0.22"/>
<path d="M97.59 200.755C95.8392 199.018 96.246 196.087 98.4036 194.892L195.207 141.299C200.729 137.77 201.532 141.678 201.69 144.91C201.772 146.594 201.113 147.422 199.629 148.22L101.948 201.387C100.514 202.157 98.7455 201.901 97.59 200.755Z" fill="#FDC67F"/>
<rect x="96.2266" y="196.046" width="118.086" height="4.86908" rx="2.43454" transform="rotate(-28.9597 96.2266 196.046)" fill="#FDDAA6"/>
<ellipse cx="103.395" cy="110.19" rx="4.95" ry="2.2" fill="#D9D9D9"/>
<ellipse cx="96.8016" cy="99.1896" rx="4.95" ry="2.2" fill="#D9D9D9"/>
<ellipse cx="117.7" cy="102.49" rx="4.95" ry="2.2" fill="#D9D9D9"/>
<ellipse cx="133.098" cy="113.49" rx="4.95" ry="2.2" fill="#D9D9D9"/>
<ellipse cx="118.802" cy="124.49" rx="4.95" ry="2.2" fill="#D9D9D9"/>
<ellipse cx="102.302" cy="122.29" rx="4.95" ry="2.2" fill="#D9D9D9"/>
<ellipse cx="83.5984" cy="134.39" rx="4.95" ry="2.2" fill="#D9D9D9"/>
<path d="M50.0546 43.9868C49.9043 35.4857 51.9216 25.3543 59.2312 26.0381C59.8167 26.0929 60.192 26.6726 60.1 27.2535C58.7772 35.6036 59.4059 40.1299 60.6302 42.8442C62.41 46.7901 63.874 51.5783 59.5862 52.1729C58.0301 52.3887 56.3247 52.0608 54.4407 51.201C51.676 49.9392 50.1083 47.0253 50.0546 43.9868Z" fill="#FAC68E" stroke="#FAC68E" stroke-width="0.22"/>
<path d="M107.586 44.1844C107.436 35.6833 109.453 25.5519 116.762 26.2357C117.348 26.2905 117.723 26.8703 117.631 27.4512C116.308 35.8013 116.937 40.3276 118.161 43.0418C119.941 46.9877 121.405 51.7759 117.117 52.3705C115.561 52.5863 113.856 52.2585 111.972 51.3987C109.207 50.1369 107.64 47.223 107.586 44.1844Z" fill="#FAC68E" stroke="#FAC68E" stroke-width="0.22"/>
</svg>
