<svg width="184" height="171" viewBox="0 0 184 171" fill="none" xmlns="http://www.w3.org/2000/svg">
<path d="M181.672 166.5H1.67188L4.28631 142.597C5.82377 128.54 16.9684 117.465 31.0346 116.016L148.598 103.907C166.289 102.085 181.672 115.965 181.672 133.749V166.5Z" fill="#31995A" stroke="#279050" stroke-width="3"/>
<path d="M25.6719 94.5769L90.1719 31.5L157.672 94.5769V151.5H112.672V113.038H69.1719V151.5H25.6719V94.5769Z" fill="#EFE6CE" stroke="#EADFC9" stroke-width="3"/>
<path d="M17.941 90.4236C15.9403 89.5051 14.4881 88.0634 13.4179 86.04C9.56346 78.7529 13.7616 70.0406 19.3743 64.0028C37.5537 44.4466 78.9285 1.49879 91.6719 1.5C104.898 1.50125 149.929 47.7625 167.279 66.1209C171.796 70.9004 175.33 77.1791 173.931 83.6048C173.193 86.9981 171.606 88.9859 169.173 90.121C162.369 93.2958 154.659 88.6239 149.228 83.4398L93.7921 30.5238C92.6132 29.3986 90.7517 29.4202 89.5993 30.5726L36.3791 83.7927C31.4002 88.7717 24.3403 93.3612 17.941 90.4236Z" fill="#F64141" stroke="#F93634" stroke-width="3"/>
<rect x="81.1719" y="66" width="24" height="27" fill="white" stroke="#F6F6F6" stroke-width="3"/>
<path d="M25.6719 147H157.672C158.5 147 159.172 147.672 159.172 148.5V168H24.1719V148.5C24.1719 147.672 24.8434 147 25.6719 147Z" fill="#E9BEA7" stroke="#E1BDAA" stroke-width="3"/>
<path d="M70.6719 115.5C70.6719 112.186 73.3582 109.5 76.6719 109.5H109.672C112.986 109.5 115.672 112.186 115.672 115.5V169.5H70.6719V115.5Z" fill="#F64141" stroke="#F93634" stroke-width="3"/>
</svg>
