<svg width="140" height="151" viewBox="0 0 140 151" fill="none" xmlns="http://www.w3.org/2000/svg">
<path d="M101.5 127.039L69.5 145.28V37.8242L101.5 26.8796V127.039Z" fill="#CD4E36"/>
<path d="M125.834 38.8733L101.5 27.5203V127.694L134.78 142.72L125.834 38.8733Z" fill="#AA3E2E"/>
<path d="M16.3672 36.9656L38.1412 30.7203V127.04L6.78125 140.16L16.3672 36.9656Z" fill="#CD4E36"/>
<path d="M69.5 37.6698L37.5 31.3594V131.33L69.5 145.279V37.6698Z" fill="#AA3E2E"/>
<path d="M11.5781 35.2L36.5381 28.48L69.1781 35.2L102.138 27.2L127.738 36.48L135.738 145.28L102.138 129.92L69.1781 145.28L36.5381 129.92L3.57812 144L11.5781 35.2Z" stroke="white" stroke-width="6.4"/>
<path fill-rule="evenodd" clip-rule="evenodd" d="M39.7255 20.0617C54.1361 -4.89831 83.6966 -8.41831 100.14 20.0617C116.572 48.5236 69.9916 92.9652 69.9325 93.0217C69.9325 93.0217 25.3149 45.0217 39.7255 20.0617ZM70.4589 22.3996C64.2734 22.3997 59.2587 27.4143 59.2587 33.5998C59.2588 39.7852 64.2735 44.7998 70.4589 44.8C76.6444 44.8 81.659 39.7853 81.6591 33.5998C81.6591 27.4142 76.6445 22.3996 70.4589 22.3996Z" fill="#FECF45"/>
</svg>
